# xmcd
#
# Track frame offsets:
#	225
#	16145
#	34048
#	51628
#	68103
#	82808
#	99008
#	117185
#	136238
#	154908
#	169358
#	183115
#	198245
#	208845
#	223313
#	234025
#	246358
#	261698
#	271948
#	283198
#
# Disc length: 3919 seconds
# Revision: 2
# Processed by: cddbd v1.5.2PL0 Copyright (c) Steve Scherf et al.
# Submitted via: dBpowerAMP V12.0
#
DISCID=240f4c14
DTITLE=Various Artist - Country Soft N Mellow Disc 1
DYEAR=1989
DGENRE=Country
TTITLE0=Alabama - Feels So Right
TTITLE1=Ronnie Milsap - She Keeps The Home Fires Burning
TTITLE2=Eddie Rabbit and Juice Newton - Both to Each Other
TTITLE3=Don Williams - Love Is On A Roll
TTITLE4=George Strait - Does Fort Worth Ever Cross Your Mind
TTITLE5=Lee Greenwood - Somebody's Gonna Love You
TTITLE6=Earl Thomas Conley - What She Is Is A Woman In Love
TTITLE7=Restless Heart - I'll Still Be Loving You
TTITLE8=K T Oslin - I'll Always Come Back
TTITLE9=George Strait - You Look So Good In Love
TTITLE10=Alabama - Face To Face
TTITLE11=Lee Greenwood - Going Going Gone
TTITLE12=Jim Reeves - Memories Are Made Of This
TTITLE13=Lee Greenwood - Only You and You Alone
TTITLE14=Jim Ed Brown - Yesterday
TTITLE15=Dolly Parton - Elusive Butterfly
TTITLE16=Willie Nelson - Everybody's Talkin
TTITLE17=Eddy Arnold - Gentle On My Mind
TTITLE18=Eddy Arnold - What A Wonderful World
TTITLE19=Sonny James - I'll Never Find Another You
EXTD=
EXTT0=
EXTT1=
EXTT2=
EXTT3=
EXTT4=
EXTT5=
EXTT6=
EXTT7=
EXTT8=
EXTT9=
EXTT10=
EXTT11=
EXTT12=
EXTT13=
EXTT14=
EXTT15=
EXTT16=
EXTT17=
EXTT18=
EXTT19=
PLAYORDER=
